<svg width="20" height="20" viewBox="0 0 20 20" fill="none" xmlns="http://www.w3.org/2000/svg">
<path fill-rule="evenodd" clip-rule="evenodd" d="M8.43728 3.81803C8.45382 3.82867 8.47042 3.83934 8.48708 3.85005L14.4552 7.68672L14.5026 7.71714C15.0512 8.06978 15.5324 8.37907 15.8692 8.67358C16.2255 8.98517 16.5674 9.40518 16.5674 9.99996C16.5674 10.5948 16.2255 11.0148 15.8692 11.3263C15.5324 11.6209 15.0512 11.9301 14.5026 12.2828C14.4868 12.2929 14.4711 12.303 14.4552 12.3132L8.48709 16.1499L8.43729 16.1819C7.79999 16.5916 7.25129 16.9444 6.7953 17.1504C6.32513 17.3629 5.73881 17.5195 5.16143 17.2043C4.58404 16.8891 4.39875 16.3112 4.32319 15.8008C4.24991 15.3058 4.24995 14.6535 4.25 13.8958L4.25001 13.8366V6.16329C4.25001 6.14349 4.25 6.12375 4.25 6.10408C4.24995 5.34643 4.24991 4.6941 4.32319 4.19913C4.39875 3.68877 4.58404 3.11086 5.16143 2.79563C5.73881 2.48041 6.32513 2.63706 6.7953 2.84948C7.25129 3.0555 7.79999 3.40828 8.43728 3.81803ZM5.8549 4.11982C5.85443 4.11919 5.85822 4.11789 5.86767 4.11781C5.86009 4.12041 5.85536 4.12045 5.8549 4.11982ZM5.8837 4.11859C5.92431 4.12239 6.01256 4.14183 6.1777 4.21644C6.52004 4.37111 6.97457 4.66094 7.67595 5.11182L13.6441 8.94849C14.2543 9.34077 14.6389 9.59039 14.8818 9.80273C14.9967 9.90323 15.0439 9.96561 15.0619 9.99605C15.0628 9.99746 15.0635 9.99876 15.0642 9.99996C15.0635 10.0012 15.0628 10.0025 15.0619 10.0039C15.0439 10.0343 14.9967 10.0967 14.8818 10.1972C14.6389 10.4095 14.2543 10.6592 13.6441 11.0514L7.67595 14.8881C6.97458 15.339 6.52004 15.6288 6.1777 15.7835C6.01256 15.8581 5.92431 15.8775 5.8837 15.8813C5.86493 15.8451 5.83356 15.7604 5.80702 15.5811C5.752 15.2095 5.75001 14.6704 5.75001 13.8366V6.16329C5.75001 5.32949 5.752 4.79042 5.80702 4.41882C5.83356 4.23955 5.86493 4.15481 5.8837 4.11859ZM5.8549 15.8801C5.85536 15.8795 5.86009 15.8795 5.86767 15.8821C5.85822 15.882 5.85443 15.8807 5.8549 15.8801ZM5.8917 15.8952C5.89799 15.9002 5.90058 15.9042 5.9003 15.9049C5.90003 15.9056 5.89688 15.9031 5.8917 15.8952ZM5.8917 4.10469C5.89688 4.09678 5.90003 4.09429 5.9003 4.09503C5.90058 4.09576 5.89799 4.09972 5.8917 4.10469Z" fill="#69819D"/>
</svg>
