<svg width="20" height="20" viewBox="0 0 20 20" fill="none" xmlns="http://www.w3.org/2000/svg">
<path fill-rule="evenodd" clip-rule="evenodd" d="M5.8333 2.58324L5.76002 2.58321C5.3673 2.58302 5.06431 2.58287 4.7968 2.63608C3.7059 2.85307 2.85313 3.70584 2.63614 4.79674C2.58293 5.06424 2.58308 5.36724 2.58328 5.75996L2.5833 5.83324V14.1666L2.58328 14.2398C2.58308 14.6326 2.58293 14.9356 2.63614 15.2031C2.85313 16.294 3.7059 17.1467 4.7968 17.3637C5.0643 17.4169 5.36729 17.4168 5.76001 17.4166H5.76002L5.8333 17.4166L5.90657 17.4166H5.90659C6.29931 17.4168 6.60229 17.4169 6.8698 17.3637C7.9607 17.1467 8.81347 16.294 9.03046 15.2031C9.08367 14.9356 9.08352 14.6326 9.08332 14.2398L9.0833 14.1666V5.83324L9.08332 5.75996V5.75996C9.08352 5.36723 9.08367 5.06424 9.03046 4.79674C8.81347 3.70584 7.9607 2.85307 6.8698 2.63608C6.60229 2.58287 6.2993 2.58302 5.90657 2.58321L5.8333 2.58324ZM5.08944 4.10726C5.19192 4.08687 5.3327 4.08324 5.8333 4.08324C6.3339 4.08324 6.47468 4.08687 6.57716 4.10726C7.07302 4.20589 7.46065 4.59351 7.55928 5.08938C7.57967 5.19186 7.5833 5.33263 7.5833 5.83324V14.1666C7.5833 14.6672 7.57967 14.8079 7.55928 14.9104C7.46065 15.4063 7.07302 15.7939 6.57716 15.8926C6.47468 15.9129 6.3339 15.9166 5.8333 15.9166C5.3327 15.9166 5.19192 15.9129 5.08944 15.8926C4.59357 15.7939 4.20595 15.4063 4.10732 14.9104C4.08693 14.8079 4.0833 14.6672 4.0833 14.1666V5.83324C4.0833 5.33263 4.08693 5.19186 4.10732 5.08938C4.20595 4.59351 4.59357 4.20589 5.08944 4.10726ZM14.1666 2.58324L14.0934 2.58321C13.7006 2.58302 13.3976 2.58287 13.1301 2.63608C12.0392 2.85307 11.1865 3.70584 10.9695 4.79674C10.9163 5.06424 10.9164 5.36724 10.9166 5.75996L10.9166 5.83324V14.1666L10.9166 14.2398C10.9164 14.6326 10.9163 14.9356 10.9695 15.2031C11.1865 16.294 12.0392 17.1467 13.1301 17.3637C13.3976 17.4169 13.7006 17.4168 14.0933 17.4166H14.0934L14.1666 17.4166L14.2399 17.4166H14.2399C14.6326 17.4168 14.9356 17.4169 15.2031 17.3637C16.294 17.1467 17.1468 16.294 17.3638 15.2031C17.417 14.9356 17.4169 14.6326 17.4167 14.2398L17.4166 14.1666V5.83324L17.4167 5.75996C17.4169 5.36724 17.417 5.06425 17.3638 4.79674C17.1468 3.70584 16.294 2.85307 15.2031 2.63608C14.9356 2.58287 14.6326 2.58302 14.2399 2.58321L14.1666 2.58324ZM13.4228 4.10726C13.5253 4.08687 13.666 4.08324 14.1666 4.08324C14.6672 4.08324 14.808 4.08687 14.9105 4.10726C15.4064 4.20589 15.794 4.59351 15.8926 5.08938C15.913 5.19186 15.9166 5.33263 15.9166 5.83324V14.1666C15.9166 14.6672 15.913 14.8079 15.8926 14.9104C15.794 15.4063 15.4064 15.7939 14.9105 15.8926C14.808 15.9129 14.6672 15.9166 14.1666 15.9166C13.666 15.9166 13.5253 15.9129 13.4228 15.8926C12.9269 15.7939 12.5393 15.4063 12.4406 14.9104C12.4203 14.8079 12.4166 14.6672 12.4166 14.1666V5.83324C12.4166 5.33263 12.4203 5.19186 12.4406 5.08938C12.5393 4.59351 12.9269 4.20589 13.4228 4.10726Z" fill="#69819D"/>
</svg>
